# xmcd
# 
# Track frame offsets:
#     150
#     23632
#     42287
#     57585
#     78692
#     100447
#     122225
#     133810
#     150840
#     177015
# 
# Disc length: 2690
# 
# Revision: 8
# Processed by: cddbd v1.5.2PL0 Copyright (c) Steve Scherf et al.
# Submitted via: BonkEnc v1.0.15
# 
DISCID=800a800a
DTITLE=Paul McCartney and Wings - 1999 Band on the Run [Remastered, Bonus Disc] Disc 1
DYEAR=1973
DGENRE=Rock
TTITLE0=Band On The Run
TTITLE1=Jet
TTITLE2=Bluebird
TTITLE3=Mrs Vandebilt
TTITLE4=Let Me Roll It
TTITLE5=Mamunia
TTITLE6=No Words
TTITLE7=Helen Wheels
TTITLE8=Picasso's Last Words (Drink To Me)
TTITLE9=Nineteen Hundred And Eighty Five
EXTD=orrigional release:\n YEAR: 1999 ID3G: 254
EXTT0=
EXTT1=
EXTT2=
EXTT3=
EXTT4=
EXTT5=
EXTT6=
EXTT7=
EXTT8=
EXTT9=
PLAYORDER=
